<svg width="343" height="93" viewBox="0 0 343 93" fill="none" xmlns="http://www.w3.org/2000/svg">
<mask id="mask0" mask-type="alpha" maskUnits="userSpaceOnUse" x="0" y="0" width="343" height="93">
<rect width="343" height="93" fill="#C4C4C4"/>
</mask>
<g mask="url(#mask0)">
<rect y="-2.00011" width="343" height="97" fill="#567D08"/>
<path opacity="0.15" d="M169.111 60.0956C139.928 46 99.7094 62.4715 67.8357 51.3165C51.2517 45.5125 47.8885 40.2752 35.9879 31.6172C28.3548 26.0639 27.6273 25.0971 20.3825 21.1252C13.1378 17.1532 0 12.5603 0 12.5603V-2.00011H343V94.9976H261.151C261.151 94.9976 217.435 95.4555 196.5 83.435C183.768 76.1239 184.051 67.3112 169.111 60.0956Z" fill="white"/>
<path opacity="0.15" d="M178.295 53.2214C150.485 33.2429 112.16 61.7483 81.7858 45.9377C65.9824 37.7114 57.7091 8.55798 53.1062 -0.057724C50.5841 -4.77866 46.733 -9.0275 40.4777 -12.3322C34.2225 -15.6368 17.1428 -14.1531 17.1428 -14.1531V-34.7903H344V94.0575H270.859C270.859 94.0575 219.57 95.7098 202.878 83.8738C188.31 73.5441 192.531 63.4485 178.295 53.2214Z" fill="white"/>
</g>
</svg>
